<svg width="14" height="21" viewBox="0 0 14 21" fill="#FF66C4" xmlns="http://www.w3.org/2000/svg">
  <path d="M0.998234 0.797546C1.07825 4.60666 1.23895 9.87989 1.51008 14.7034H2.85716C3.1521 9.87989 3.2341 4.60666 3.28833 0.797546H0.998234Z"/>
  <path d="M4.25975 18.2123C4.25975 19.4006 3.32003 20.3609 2.15614 20.3648C0.979679 20.3688 0.0227727 19.3967 0.0247566 18.2017C0.0267406 17.0074 0.981663 16.0492 2.16804 16.0538C3.33061 16.0597 4.26173 17.0193 4.25975 18.2123Z"/>
  <path d="M4.55726 13.7319V0.798828H5.93145V7.34111C5.93145 9.92218 7.76326 10.3216 9.21879 10.3216C11.2126 10.3216 12.5055 10.0141 13.2329 9.43083V18.4636C12.4248 19.6619 11.2662 20.3681 9.51506 20.3681C6.52398 20.3681 4.55726 18.7704 4.55726 13.7319Z"/>
</svg>